<svg width="16" height="16" viewBox="0 0 16 16" fill="none" xmlns="http://www.w3.org/2000/svg">
<path fill-rule="evenodd" clip-rule="evenodd" d="M2.53346 7.33365C2.53346 4.68268 4.6825 2.53365 7.33346 2.53365C9.98443 2.53365 12.1335 4.68268 12.1335 7.33365C12.1335 7.47663 12.1272 7.61815 12.115 7.75795C12.0926 8.0136 12.2263 8.26359 12.4637 8.36101C12.776 8.48916 13.13 8.30447 13.1661 7.96884C13.1886 7.76019 13.2001 7.54826 13.2001 7.33365C13.2001 4.09358 10.5735 1.46698 7.33346 1.46698C4.09339 1.46698 1.4668 4.09358 1.4668 7.33365C1.4668 10.5737 4.09339 13.2003 7.33346 13.2003C8.76144 13.2003 10.0703 12.6901 11.0876 11.8421L13.6229 14.3775C13.8312 14.5857 14.1689 14.5857 14.3772 14.3775C14.5855 14.1692 14.5855 13.8315 14.3772 13.6232L11.8418 11.0879C12.0302 10.8619 12.2018 10.6217 12.3549 10.3689C12.5149 10.1048 12.3849 9.7699 12.0993 9.65269C11.8386 9.54573 11.5422 9.66048 11.3915 9.89852C11.2152 10.1768 11.0111 10.4357 10.7831 10.6713C10.7621 10.6869 10.742 10.7042 10.7229 10.7232C10.7039 10.7422 10.6866 10.7624 10.671 10.7834C9.80725 11.6193 8.63043 12.1336 7.33346 12.1336C4.6825 12.1336 2.53346 9.98461 2.53346 7.33365Z" fill="white"/>
</svg>
